<svg height="1em" fill="currentColor"
  xmlns="http://www.w3.org/2000/svg" viewBox="0 0 303.78 61.56">
  <path d="M143.34,20.4a1.07,1.07,0,0,1,.36.1,1.22,1.22,0,0,1,.32.22,4.87,4.87,0,0,1,.34.38l12.9,16.44c0-.4-.08-.78-.09-1.16s0-.74,0-1.07V20.37h4V45h-2.36a2,2,0,0,1-.9-.17,1.93,1.93,0,0,1-.7-.61L144.36,27.8c0,.36.06.72.07,1.08s0,.68,0,1V45h-4V20.37h2.4A3.68,3.68,0,0,1,143.34,20.4Z"/>
  <path d="M189.1,45h-3.54a1.57,1.57,0,0,1-1-.29,1.76,1.76,0,0,1-.56-.74l-1.83-5H172l-1.84,5a1.56,1.56,0,0,1-.54.71,1.46,1.46,0,0,1-1,.32h-3.56l9.66-24.58h4.67Zm-15.91-9.28H181l-3-8.18-.45-1.28c-.16-.49-.32-1-.48-1.61-.16.58-.32,1.12-.47,1.62s-.3.93-.45,1.31Z"/>
  <path d="M207.82,20.37v3.76h-7.4V45h-4.57V24.13h-7.43V20.37Z"/>
  <path d="M234.34,32.66a13.68,13.68,0,0,1-.9,5,12,12,0,0,1-2.54,4A11.39,11.39,0,0,1,227,44.28a14.11,14.11,0,0,1-10.18,0,11.57,11.57,0,0,1-3.94-2.62,11.83,11.83,0,0,1-2.54-4,14.37,14.37,0,0,1,0-10A11.48,11.48,0,0,1,216.8,21a14.18,14.18,0,0,1,10.18,0,11.54,11.54,0,0,1,6.46,6.61A13.59,13.59,0,0,1,234.34,32.66Zm-4.69,0a11.35,11.35,0,0,0-.54-3.63,7.74,7.74,0,0,0-1.54-2.73,6.62,6.62,0,0,0-2.44-1.71,9,9,0,0,0-6.48,0,6.61,6.61,0,0,0-2.46,1.71A7.93,7.93,0,0,0,214.63,29a11.35,11.35,0,0,0-.54,3.63,11.35,11.35,0,0,0,.54,3.63A7.79,7.79,0,0,0,216.19,39a6.73,6.73,0,0,0,2.46,1.71,9,9,0,0,0,6.48,0A6.73,6.73,0,0,0,227.57,39a7.61,7.61,0,0,0,1.54-2.72A11.35,11.35,0,0,0,229.65,32.66Z"/>
  <path d="M249.2,41.26a6,6,0,0,0,2.37-.44,5.06,5.06,0,0,0,1.77-1.24,5.34,5.34,0,0,0,1.1-1.94,8.13,8.13,0,0,0,.38-2.55V20.37h4.58V35.09a11.35,11.35,0,0,1-.71,4.06,9.2,9.2,0,0,1-2,3.21,9.49,9.49,0,0,1-3.21,2.11,12.26,12.26,0,0,1-8.5,0,9.3,9.3,0,0,1-3.21-2.11,9.18,9.18,0,0,1-2-3.21,11.35,11.35,0,0,1-.71-4.06V20.37h4.58V35.08a7.85,7.85,0,0,0,.38,2.55,5.56,5.56,0,0,0,1.09,1.94,4.83,4.83,0,0,0,1.76,1.25A6,6,0,0,0,249.2,41.26Z"/>
  <path d="M270.14,35.35V45h-4.57V20.37h7.49a15.45,15.45,0,0,1,4.31.52,8.25,8.25,0,0,1,2.94,1.45A5.65,5.65,0,0,1,282,24.58a7.92,7.92,0,0,1,.17,5.21,7,7,0,0,1-1.06,2,7.16,7.16,0,0,1-1.7,1.58,8.87,8.87,0,0,1-2.3,1.08,4.49,4.49,0,0,1,1.5,1.42L284.76,45h-4.11a2.13,2.13,0,0,1-1-.23,2.16,2.16,0,0,1-.7-.68l-5.17-7.88a1.71,1.71,0,0,0-.64-.62,2.14,2.14,0,0,0-1-.19Zm0-3.28H273a6.93,6.93,0,0,0,2.25-.33,4.24,4.24,0,0,0,1.58-.89,3.72,3.72,0,0,0,.93-1.35,4.74,4.74,0,0,0,.3-1.72,3.5,3.5,0,0,0-1.23-2.87,5.9,5.9,0,0,0-3.77-1h-2.92Z"/>
  <path d="M302.22,24.84a1.26,1.26,0,0,1-.44.53,1.09,1.09,0,0,1-.58.15,1.56,1.56,0,0,1-.77-.26c-.28-.18-.61-.37-1-.59a8.55,8.55,0,0,0-1.35-.58,5.6,5.6,0,0,0-1.83-.27,5.5,5.5,0,0,0-1.66.23,3.57,3.57,0,0,0-1.19.64,2.58,2.58,0,0,0-.72,1,3.17,3.17,0,0,0-.24,1.25,2.13,2.13,0,0,0,.49,1.44,3.94,3.94,0,0,0,1.28,1,12.53,12.53,0,0,0,1.82.73c.68.21,1.37.44,2.08.69a17.11,17.11,0,0,1,2.08.85A7,7,0,0,1,302,32.84a5.57,5.57,0,0,1,1.29,1.81,6.35,6.35,0,0,1,.48,2.6,8.48,8.48,0,0,1-.57,3.12,7.22,7.22,0,0,1-1.66,2.54,8,8,0,0,1-2.68,1.69,9.7,9.7,0,0,1-3.62.63,11.91,11.91,0,0,1-2.31-.23,13.21,13.21,0,0,1-2.19-.66,10.6,10.6,0,0,1-1.95-1A10.21,10.21,0,0,1,287.17,42l1.33-2.2a1.58,1.58,0,0,1,.45-.4,1.18,1.18,0,0,1,.59-.16,1.61,1.61,0,0,1,.91.35c.33.23.72.49,1.17.77a9,9,0,0,0,1.58.78,6.15,6.15,0,0,0,2.18.35,4.46,4.46,0,0,0,3-.93,3.35,3.35,0,0,0,1.07-2.66,2.48,2.48,0,0,0-.48-1.58,3.94,3.94,0,0,0-1.29-1,9.86,9.86,0,0,0-1.82-.71q-1-.28-2.07-.63a16.42,16.42,0,0,1-2.07-.81,6.74,6.74,0,0,1-1.82-1.24A5.69,5.69,0,0,1,288.64,30a7.39,7.39,0,0,1-.48-2.84,6.8,6.8,0,0,1,.53-2.61,6.63,6.63,0,0,1,1.57-2.26,7.75,7.75,0,0,1,2.52-1.59,9.36,9.36,0,0,1,3.42-.59,11.52,11.52,0,0,1,4,.68,9,9,0,0,1,3.13,1.9Z"/>
  <path d="M76.36,28.5l-16-27-16,27L0,0,24.84,61.56H95.93L120.77,0Zm-16-19.75L73.25,30.49,60.39,38.75,47.52,30.49ZM75.14,33.67,89,57.12,63.81,40.94ZM57,40.94,31.76,57.12,45.64,33.67ZM7.76,9.37,42.53,31.68,27.21,57.55ZM37.44,57.86l23-14.72L83.33,57.86Zm56.12-.31L78.25,31.68,113,9.37Z"/>
</svg>